PathFileType        4      (X/Y/Z)      Abduction.trc         																																																																												
DataRate	CameraRate	NumFrames	NumMarkers	Units	OrigDataRate	OrigDataStartFrame	OrigNumFrames																																																																					
100	100	12	25	mm	100	1245	1991																																																																					
Frame#	Time	AA			AI			Ant_Sh			CV7			GH			LAH			Lat_Sh			LCAJ			LPH			Post_Sh			RAH			RCAJ			RHLE			RHME			RPH			RUA			SJN			SXS			TS			TV8			centelbow			centpxt8			centijc7			centLPHRPH			ScapulaThoracicContactPt		
		X1	Y1	Z1	X2	Y2	Z2	X3	Y3	Z3	X4	Y4	Z4	X5	Y5	Z5	X6	Y6	Z6	X7	Y7	Z7	X8	Y8	Z8	X9	Y9	Z9	X10	Y10	Z10	X11	Y11	Z11	X12	Y12	Z12	X13	Y13	Z13	X14	Y14	Z14	X15	Y15	Z15	X16	Y16	Z16	X17	Y17	Z17	X18	Y18	Z18	X19	Y19	Z19	X20	Y20	Z20	X21	Y21	Z21	X22	Y22	Z22	X23	Y23	Z23	X24	Y24	Z24	X25	Y25	Z25
1245	12.44	-488.519165	1555.355591	-32.85902786	-512.8589478	1372.65686	-84.61404419	-373.077179	1549.516479	-14.00080872	-475.2771912	1598.010742	-209.8244324	-428.0137634	1533.947632	-19.32912636	-261.3484802	1774.28894	-251.3148346	-440.4549866	1571.97876	-2.179227352	-402.3080444	1564.470947	-388.2692566	-464.2345581	1720.612427	-262.4646912	-509.2197876	1510.934204	-27.20532036	-265.9133301	1776.472778	-153.3762817	-433.1694641	1577.773315	-59.53158188	-435.670929	1513.868042	259.950531	-379.5131531	1407.719238	255.6707764	-463.9499512	1727.310059	-147.7847748	-484.9884338	1457.948486	108.74823	-309.4751587	1511.193604	-205.3959351	-254.5237122	1336.846802	-203.7974396	-535.3051147	1506.151367	-130.7690277	-493.5224304	1307.781738	-214.6736603	-407.592041	1460.79364	257.8106537	-374.0230713	1322.31427	-209.2355499	-392.3761749	1554.602173	-207.6101837	-464.0922546	1723.961243	-205.124733	-512.2277425	1478.054606	-82.74736659
1246	12.45	-488.4273987	1556.32373	-33.67510223	-512.197876	1373.082275	-84.0592804	-372.9582214	1551.573853	-14.25112152	-475.1210632	1598.035889	-209.7706909	-428.0614014	1535.57312	-19.54102898	-261.1903076	1774.260498	-251.4546051	-440.6450195	1573.61792	-3.53665328	-402.4734497	1564.348267	-388.1488953	-464.1361389	1720.607422	-262.442688	-509.3718567	1511.962646	-27.34684181	-265.6696167	1776.508667	-153.5476685	-433.3106995	1578.523682	-60.20598221	-437.098999	1521.576172	259.5058594	-379.8323669	1416.122681	257.9064331	-463.733429	1727.358765	-147.7070312	-485.5567932	1462.258423	109.6006088	-309.3380737	1511.256836	-205.4725037	-254.3215942	1336.943481	-203.8064728	-535.1802368	1506.232178	-130.5751648	-493.334137	1307.800659	-214.3553925	-408.465683	1468.849426	258.7061462	-373.8278656	1322.37207	-209.0809326	-392.2295685	1554.646362	-207.6215973	-463.9347839	1723.983093	-205.0748596	-511.9351705	1478.546061	-82.76984914
1247	12.46	-488.2148132	1557.113159	-34.56906509	-511.5751343	1373.424561	-83.65113831	-372.5358887	1554.304077	-14.42620564	-474.7634888	1598.161987	-209.7312317	-427.9346924	1537.623047	-19.74050903	-261.0340881	1774.216675	-251.6438293	-440.7407837	1575.335449	-4.618817329	-402.5755005	1564.283691	-388.0169983	-464.0090637	1720.595581	-262.3504944	-509.4533997	1513.077148	-27.56045341	-265.3685303	1776.547852	-153.7817383	-433.0391846	1579.315063	-60.77861404	-438.6138306	1529.105347	258.9676819	-379.9828186	1424.274658	259.900116	-463.4635925	1727.446899	-147.6426544	-485.9572144	1466.540039	110.0062866	-309.1712341	1511.385254	-205.5146179	-254.1369324	1337.118774	-203.677002	-535.0831299	1506.401733	-130.3623352	-493.0880432	1307.772217	-214.0045319	-409.2983246	1476.690002	259.4338989	-373.6124878	1322.445496	-208.8407669	-391.9673615	1554.773621	-207.6229248	-463.7363281	1724.02124	-204.9965744	-511.6243591	1478.979818	-82.8608462
1248	12.47	-488.2295532	1558.152222	-35.23827362	-511.0841064	1373.778076	-83.24817657	-372.5327148	1556.223755	-14.82842731	-474.6062622	1598.174194	-209.5944366	-428.1064758	1539.123413	-20.05379105	-260.9060974	1774.193237	-251.7352905	-441.0058899	1576.69165	-5.807299137	-402.7523804	1564.20105	-387.8780518	-463.8833313	1720.598999	-262.2407227	-509.6601563	1514.029053	-27.72194099	-265.0517883	1776.610596	-153.9382172	-433.1144409	1579.874512	-61.44346237	-440.1016846	1536.102661	258.2052917	-380.1220703	1432.224487	261.653595	-463.2572021	1727.534424	-147.4947662	-486.3110657	1470.418335	110.2774887	-309.0159302	1511.426636	-205.5527649	-253.9789276	1337.156006	-203.7140045	-535.0444946	1506.513672	-130.1485291	-492.9496155	1307.760864	-213.6360779	-410.1118774	1484.163574	259.9294434	-373.4642715	1322.458435	-208.6750412	-391.8110962	1554.800415	-207.5736008	-463.5702667	1724.066711	-204.8677444	-511.4527181	1479.481323	-82.87832642
1249	12.48	-488.194397	1558.821777	-35.95516968	-510.6882324	1374.0802	-82.93444824	-372.677887	1558.086182	-15.63795185	-474.4915771	1598.206055	-209.4462585	-428.1802063	1540.599365	-20.62240219	-260.7284851	1774.191895	-251.8763428	-441.2904358	1578.345337	-7.062058449	-402.8826599	1564.191284	-387.7682495	-463.7537537	1720.583618	-262.1322632	-509.7929077	1514.886108	-27.95172119	-264.7378845	1776.650757	-154.0785217	-433.2151794	1580.517456	-62.09115601	-441.4598999	1542.861816	257.3156738	-380.1174622	1439.860596	263.0792847	-463.0146484	1727.668213	-147.3542786	-486.5623779	1473.981567	110.4312439	-308.93396	1511.482788	-205.6200562	-253.7799988	1337.22876	-203.7026978	-534.9986572	1506.536621	-129.9015961	-492.7481995	1307.733887	-213.3637695	-410.788681	1491.361206	260.1974792	-373.2640991	1322.481323	-208.5332336	-391.7127686	1554.844421	-207.5331573	-463.384201	1724.125916	-204.7432709	-511.2937622	1479.812866	-82.93040466
1250	12.49	-488.1457825	1559.728882	-36.57095337	-510.2867737	1374.541382	-82.66828918	-372.7499084	1559.502319	-16.55302238	-474.3553467	1598.179443	-209.3405914	-428.2312317	1541.84436	-21.227705	-260.5705261	1774.125732	-252.0102692	-441.3376465	1579.552856	-8.112675667	-403.0224304	1564.153564	-387.6258545	-463.6106262	1720.578003	-261.9197388	-509.9888306	1515.823486	-28.11634827	-264.4526672	1776.689331	-154.1875	-433.3830261	1581.082642	-62.71960449	-442.9901428	1549.471924	256.2812195	-380.4554138	1447.300293	264.4732971	-462.7669067	1727.732788	-147.1791534	-486.79953	1477.269775	110.5339279	-308.8012085	1511.568359	-205.6431732	-253.5686646	1337.24939	-203.7750854	-534.928833	1506.636841	-129.6833954	-492.5063477	1307.75061	-213.0606384	-411.7227783	1498.386108	260.3772583	-373.0375061	1322.5	-208.4178619	-391.5782776	1554.873901	-207.4918823	-463.1887665	1724.155396	-204.5494461	-511.1204631	1480.302368	-82.97421265
1251	12.5	-488.0448303	1560.348389	-37.21423721	-509.9107361	1374.750488	-82.3433075	-372.7343445	1561.064697	-17.25891876	-474.2053528	1598.18811	-209.1943817	-428.1791077	1543.103638	-21.70721054	-260.4440308	1774.056152	-252.109848	-441.4555054	1580.976563	-9.146661758	-403.0883484	1564.160522	-387.4443054	-463.4893188	1720.590332	-261.7123413	-510.0793152	1516.572632	-28.27800941	-264.2392578	1776.633911	-154.3452301	-433.5417175	1581.553345	-63.30498123	-444.6126404	1555.581299	255.2166138	-380.6271973	1454.376587	265.5494385	-462.5334778	1727.820801	-146.9747162	-486.8752747	1480.141724	110.5749207	-308.704895	1511.646118	-205.6417236	-253.4103546	1337.306641	-203.7819061	-534.758667	1506.644043	-129.4746094	-492.3339844	1307.744141	-212.8266602	-412.6199188	1504.978943	260.3830261	-372.8721695	1322.525391	-208.3042831	-391.4551239	1554.917114	-207.4180527	-463.0113983	1724.205566	-204.3435287	-510.9047445	1480.580973	-83.01071803
1252	12.51	-487.4928589	1559.978638	-39.22601318	-509.5805359	1374.921021	-82.07550812	-372.6809998	1562.21167	-17.92139244	-474.0349426	1598.198486	-209.0263977	-428.294342	1544.104004	-22.19125557	-260.2946167	1774.001221	-252.1801758	-441.5857544	1582.132935	-10.34904385	-403.1509094	1564.1521	-387.3657227	-463.4319763	1720.618774	-261.4845276	-510.2267151	1517.42688	-28.48183632	-264.0240479	1776.578857	-154.3251953	-433.611969	1581.983521	-63.86714172	-446.3017273	1561.341064	254.1056976	-381.0469971	1461.200806	266.5671692	-462.2667847	1727.8573	-146.678833	-486.2481689	1483.45105	110.8099365	-308.5245361	1511.668945	-205.6870575	-253.207428	1337.324829	-203.7792053	-534.6525269	1506.636597	-129.2455292	-492.230896	1307.71167	-212.5635071	-413.6743622	1511.270935	260.3364334	-372.719162	1322.51825	-208.1713562	-391.2797394	1554.933716	-207.3567276	-462.8493805	1724.238037	-204.0816803	-510.5753072	1480.512085	-83.51568349
1253	12.52	-487.430542	1560.61792	-39.92280579	-509.2566223	1375.205688	-81.74056244	-372.6251526	1563.673096	-18.66712189	-473.8494263	1598.226685	-208.9053345	-428.250824	1545.332153	-22.73512077	-260.165802	1773.949463	-252.2899933	-441.625061	1583.343384	-11.23289585	-403.2098389	1564.163208	-387.2139893	-463.3155212	1720.689941	-261.2709351	-510.4234009	1518.238281	-28.74454689	-263.7821655	1776.547729	-154.3114929	-433.5515442	1582.454346	-64.40362549	-448.0333557	1567.015503	252.9096527	-381.4980164	1467.936035	267.2886658	-462.0153198	1727.898926	-146.4646759	-486.3005066	1486.216919	110.6752853	-308.3424988	1511.752319	-205.7023315	-252.9969635	1337.360474	-203.7961426	-534.4649048	1506.751831	-129.114563	-492.0445862	1307.723999	-212.3575897	-414.765686	1517.475769	260.0991592	-372.5207748	1322.542236	-208.0768661	-391.0959625	1554.989502	-207.303833	-462.6654205	1724.294434	-203.8678055	-510.384023	1480.85848	-83.59264374
1254	12.53	-487.3432312	1561.157227	-40.55897522	-508.9506836	1375.328491	-81.47196198	-372.5506287	1564.908813	-19.20324707	-473.6619568	1598.278809	-208.6932831	-428.3795166	1546.283813	-23.132761	-260.0321655	1773.940063	-252.3457336	-441.924408	1584.578735	-12.20217037	-403.2030334	1564.193726	-387.1286621	-463.2088623	1720.771118	-260.9732361	-510.571167	1518.863892	-28.91782188	-263.5599976	1776.538086	-154.3254089	-433.6060181	1582.805054	-64.98212433	-449.6138916	1572.283081	251.702179	-382.1889038	1474.337769	268.0667114	-461.7567749	1727.975586	-146.1038361	-486.5127258	1488.781494	110.6067734	-308.2148438	1511.791504	-205.6871948	-252.8281403	1337.424316	-203.7062531	-534.2164307	1506.685669	-128.8814697	-491.8746033	1307.869019	-212.095459	-415.9013977	1523.310425	259.8844452	-372.3513718	1322.646667	-207.900856	-390.9384003	1555.035156	-207.190239	-462.4828186	1724.373352	-203.5385361	-510.1701152	1481.057129	-83.63746897
1255	12.54	-487.3216553	1561.734131	-41.1769371	-508.639801	1375.44751	-81.22645569	-372.6457825	1566.098633	-19.93087959	-473.5342102	1598.254395	-208.5252686	-428.3184814	1546.955078	-23.64640999	-259.898468	1773.909912	-252.3691559	-442.2127991	1585.350464	-13.28136539	-403.2023315	1564.197876	-386.9866333	-463.1407166	1720.893188	-260.6984863	-509.5812378	1519.012085	-29.06979561	-263.3071289	1776.50769	-154.3956604	-433.6610107	1583.120605	-65.41212463	-451.20224	1577.326416	250.4674072	-382.7590637	1480.265137	268.5023193	-461.5212708	1727.991577	-145.8025818	-486.6210938	1491.066895	110.5730972	-308.088501	1511.879028	-205.6639099	-252.6242981	1337.441162	-203.7034149	-533.0206299	1506.169067	-128.7776794	-491.7389832	1307.88269	-211.8357697	-416.9806519	1528.795776	259.4848633	-372.1816406	1322.661926	-207.7695923	-390.8113556	1555.066711	-207.0945892	-462.3309937	1724.442383	-203.2505341	-509.6606954	1481.116903	-83.72702408
1256	12.55	-487.3240662	1562.452026	-41.76591492	-508.3453979	1375.604248	-80.90248871	-372.5395203	1567.485962	-20.25428009	-473.3600769	1598.210815	-208.3899689	-428.395813	1548.009033	-23.92168999	-259.7944031	1773.873413	-252.3340149	-442.5317688	1586.724854	-14.23692322	-403.1644592	1564.238892	-386.8633118	-463.0481567	1720.928467	-260.3997803	-509.6251221	1519.68457	-29.25504875	-263.005127	1776.502319	-154.4608765	-433.7919006	1583.576416	-65.89135742	-452.6816101	1582.251221	249.1362457	-383.4042969	1485.904297	268.9659729	-461.2850037	1728.060791	-145.5060425	-486.79953	1493.57373	110.3987045	-307.9550781	1511.943848	-205.6818085	-252.4756927	1337.497925	-203.6353455	-532.8471069	1506.177368	-128.6226654	-491.582428	1307.854736	-211.6153259	-418.0429535	1534.077759	259.0511093	-372.0290604	1322.676331	-207.6253357	-390.6575775	1555.077332	-207.0358887	-462.1665802	1724.494629	-202.9529114	-509.5055237	1481.411214	-83.76368968
